<svg enable-background="new 0 9.5 48 29" height="29" viewBox="0 9.5 48 29" width="48" xmlns="http://www.w3.org/2000/svg"><path d="m2.5 14.5h43v19h-43z" fill="#fff"/><path d="m22.457 18.198h-2.522v4.926h2.578c.237-.004 1.198-.074 1.801-.897.692-.946.474-2.186.28-2.791-.196-.607-1.022-1.238-2.137-1.238z"/><path d="m29.299 26.823c.559.886 1.385.936 2.402.741 1.018-.195 1.554-1.48 1.554-1.48v-1.116s-2.571.099-3.252.341c-.68.241-.995 1.043-.704 1.514z"/><path d="m33.659 21.335.046.061-.014-.043z"/><path d="m0 9v4 22 4h48v-4-22-4zm11.465 6.48c.098 1.796-1.023 3.032-2.695 3.154 0 .001-.459-2.546 2.695-3.154zm1.771 12.229c-.311.521-.556.803-.556.803h-.009c-.339.396-.836.652-1.399.652-.084 0-.164-.014-.245-.023l-.001.006s-.02-.006-.027-.01c-.187-.027-.363-.08-.528-.162-.489-.145-1.183-.328-1.58-.343-.391-.016-.846.144-1.152.272-.102.06-.209.109-.322.147-.013.009-.027.015-.027.015l-.004-.004c-.183.061-.375.102-.579.102-.562 0-1.06-.257-1.397-.655-.002.002-.003.003-.006.003-.02-.023-.033-.048-.051-.07-.035-.045-.069-.092-.1-.139-3.273-4.357-1.608-7.623-1.608-7.623h.002c.475-1.074 1.546-1.827 2.796-1.827.25 0 .49.039.723.096l.002-.007s.044.018.105.041c.164.046.323.102.475.174.405.143.906.304 1.123.304.388 0 1.866-.611 2.28-.607.021 0 .033.02.051.025.083-.007.165-.025.25-.025 1.007 0 1.882.515 2.413 1.285-.817.575-1.355 1.522-1.355 2.599 0 1.263.743 2.345 1.811 2.856-.221.685-.563 1.396-1.085 2.115zm12.862-4.585c-.462.6-1.354 1.584-3.131 1.681v.019h-3.032v4.342h-1.99v-12.666h.995.995 2.159s2.694-.316 4.174 1.916c1.211 1.893.313 4.077-.17 4.708zm9.048 6.04h-1.893v-1.527c-.896 1.625-2.814 1.747-3.688 1.527-1.506-.441-1.911-1.309-2.01-1.598-.002-.002-.004-.002-.006-.002-.004-.014-.004-.024-.008-.039-.014-.037-.018-.064-.018-.064h.002c-.369-1.493-.047-2.51 1.043-3.172 1.115-.68 4.684-.68 4.684-.68v-.509c-.066-.887-.268-1.273-.681-1.48-.485-.243-1.042-.267-1.916-.17s-1.093 1.189-1.093 1.189h-1.792c.112-1.24.856-1.923 1.336-2.243l-.002-.001s.057-.041.151-.097c.007-.004.015-.008.021-.012.014-.008.024-.014.041-.021.117-.065.199-.102.199-.102l.008.001c.492-.211 1.436-.469 2.953-.316 1.358.194 2.306 1.456 2.306 1.456s.364.558.364 1.698zm6.286.042s-.279 1.457-1.152 2.294c-.874.838-1.748 1.02-3.35 1.02 0-1.037 0-1.602 0-1.602s2.063.616 2.414-1.712l-3.349-9.362h2.088l2.329 7.494 2.329-7.494h2.038z"/></svg>