<svg xmlns="http://www.w3.org/2000/svg" width="99" height="38" fill="none" viewBox="0 0 99 38">
  <path fill="#fff" d="M18.131 5.434c1.084-1.372 1.82-3.214 1.625-5.096-1.586.08-3.522 1.06-4.643 2.432-1.006 1.176-1.897 3.095-1.665 4.898 1.781.156 3.56-.9 4.683-2.234zM19.736 8.02c-2.586-.156-4.785 1.485-6.02 1.485-1.236 0-3.127-1.407-5.173-1.369-2.662.04-5.133 1.563-6.484 3.986-2.78 4.847-.733 12.037 1.969 15.984 1.312 1.953 2.894 4.103 4.978 4.026 1.97-.078 2.74-1.29 5.134-1.29 2.392 0 3.087 1.29 5.172 1.25 2.161-.038 3.513-1.953 4.825-3.908 1.506-2.226 2.122-4.376 2.16-4.494-.038-.039-4.168-1.642-4.206-6.448-.039-4.025 3.242-5.94 3.397-6.058-1.853-2.773-4.748-3.086-5.752-3.164z"/>
  <path fill="#fff" fill-rule="evenodd" d="M59.88 11.935c0-5.312-3.666-8.96-8.93-8.96H40.78v27.277h4.21v-9.32h5.829c5.32 0 9.06-3.667 9.06-8.997zm-10.058 5.444h-4.831V6.548h4.85c3.647 0 5.734 1.966 5.734 5.406 0 3.44-2.087 5.425-5.753 5.425zM68.33 18.721c-4.7.265-7.35 2.4-7.35 5.879 0 3.572 2.707 5.992 6.58 5.992 2.594 0 5.094-1.399 6.241-3.61h.094v3.27h3.891V16.547c0-3.988-3.064-6.54-7.858-6.54-4.888 0-7.933 2.646-8.158 6.238h3.835c.356-1.777 1.823-2.911 4.173-2.911 2.481 0 3.966 1.323 3.966 3.535v1.53l-5.413.322zm5.415 2.514v1.57c0 2.589-2.219 4.555-5.058 4.555-2.18 0-3.609-1.135-3.609-2.873 0-1.702 1.372-2.78 3.797-2.95l4.87-.302z" clip-rule="evenodd"/>
  <path fill="#fff" d="M81.46 37.567V34.26c.3.076.977.076 1.316.076 1.88 0 2.895-.794 3.515-2.835 0-.038.357-1.21.357-1.23l-7.143-19.904h4.398l5.001 16.181h.075l5.001-16.181h4.286L90.86 31.29c-1.691 4.82-3.646 6.37-7.745 6.37-.338 0-1.354-.037-1.654-.094z"/>
</svg>
