<svg enable-background="new -0.5 -0.5 104 104" height="104" viewBox="-.5 -.5 104 104" width="104" xmlns="http://www.w3.org/2000/svg"><path d="m74.044 35.317c1.556 1.556 1.556 4.079 0 5.635l-26.73 26.73c-1.556 1.556-4.079 1.556-5.635 0l-12.723-12.724c-1.556-1.556-1.556-4.079 0-5.634 1.556-1.556 4.079-1.556 5.634 0l9.907 9.907 23.912-23.913c1.557-1.556 4.08-1.556 5.635-.001zm28.456 16.183c0 28.19-22.814 51-51 51-28.19 0-51-22.814-51-51 0-28.19 22.814-51 51-51 28.19 0 51 22.814 51 51zm-7.969 0c0-23.786-19.249-43.031-43.031-43.031-23.786 0-43.031 19.248-43.031 43.031 0 23.786 19.249 43.031 43.031 43.031 23.786 0 43.031-19.248 43.031-43.031z" fill="#27ba5e"/></svg>