<svg enable-background="new 43.5 163.5 424 180" height="180" viewBox="43.5 163.5 424 180" width="424" xmlns="http://www.w3.org/2000/svg"><g fill="#6772e5"><path d="m460.444 256.719c0-29.069-14.056-51.989-40.97-51.989-26.992 0-43.365 22.92-43.365 51.829 0 34.18 19.328 51.51 46.959 51.51 13.575 0 23.72-3.114 31.467-7.346v-22.841c-7.747 3.914-16.611 6.311-27.873 6.311-11.021 0-20.762-3.914-22.041-17.171h55.503c.08-1.599.32-7.507.32-10.303zm-56.144-10.701c0-12.779 7.828-18.129 14.936-18.129 6.948 0 14.374 5.351 14.374 18.129z"/><path d="m332.187 204.809c-11.101 0-18.288 5.271-22.201 8.864l-1.437-7.027h-24.998v132.409l28.353-5.989.079-32.104c4.072 2.955 10.141 7.188 20.045 7.188 20.284-.081 38.813-16.372 38.813-52.389-.001-32.983-18.768-50.952-38.654-50.952zm-6.708 78.262c-6.63 0-10.622-2.396-13.417-5.348l-.159-42.167c2.954-3.274 7.027-5.59 13.576-5.59 10.301-.081 17.488 11.579 17.488 26.433.001 15.253-7.028 26.672-17.488 26.672z"/><path d="m123.591 276.045c0 20.444-16.212 32.023-39.85 32.184-9.744 0-20.445-1.916-30.987-6.469v-27.071c9.584 5.108 21.643 9.022 31.066 9.022 6.309 0 10.861-1.677 10.861-6.946 0-13.576-43.125-8.465-43.125-39.852 0-20.124 15.333-32.104 38.333-32.104 9.424 0 18.768 1.437 28.189 5.192v26.673c-8.624-4.633-19.564-7.269-28.189-7.269-5.989 0-9.662 1.758-9.662 6.15.001 12.778 43.364 6.709 43.364 40.49z"/><path d="m178.534 230.844h-21.563v40.33c0 16.692 17.97 11.5 21.563 10.063v23.078c-3.753 2.076-10.621 3.754-19.884 3.754-16.852 0-29.469-12.377-29.469-29.147l.159-90.962 27.712-5.909v24.597h21.481z"/><path d="m237.633 232.76c-3.594-1.197-14.936-2.874-21.643 5.91v67.404h-28.35v-99.428h24.518l1.756 8.386c6.63-12.219 19.886-9.742 23.639-8.386h.081z"/><path d="m244.341 206.646h28.51v99.428h-28.51z"/><path d="m272.851 191.952-28.51 6.069v-23.079l28.51-6.07z"/></g></svg>