<?xml version="1.0" standalone="no"?>
<!DOCTYPE svg PUBLIC "-//W3C//DTD SVG 20010904//EN"
 "http://www.w3.org/TR/2001/REC-SVG-20010904/DTD/svg10.dtd">
<svg version="1.0" xmlns="http://www.w3.org/2000/svg"
 width="1024.000000pt" height="1024.000000pt" viewBox="0 0 1024.000000 1024.000000"
 preserveAspectRatio="xMidYMid meet">
<metadata>
Created by potrace 1.11, written by Peter Selinger 2001-2013
</metadata>
<g transform="translate(0.000000,1024.000000) scale(0.100000,-0.100000)"
fill="#000000" stroke="none">
<path d="M0 5120 l0 -5120 5120 0 5120 0 0 5120 0 5120 -5120 0 -5120 0 0
-5120z m5860 2826 c464 -66 880 -214 1205 -429 83 -55 235 -169 235 -177 0 -5
-1027 -750 -1067 -773 -8 -5 -54 11 -126 47 -128 62 -262 107 -398 133 -133
25 -477 25 -603 0 -277 -56 -495 -168 -688 -355 -253 -245 -412 -597 -457
-1014 -14 -125 -14 -391 0 -516 34 -315 140 -611 301 -836 121 -171 323 -339
509 -425 186 -85 338 -119 566 -128 376 -14 697 75 951 261 34 26 66 46 71 46
11 0 1065 -758 1069 -769 6 -17 -208 -193 -348 -286 -330 -220 -748 -368
-1220 -432 -192 -26 -687 -26 -880 0 -615 83 -1086 287 -1510 654 -487 421
-778 993 -877 1723 -26 193 -26 707 0 900 110 809 451 1416 1050 1864 402 300
910 478 1507 530 113 10 600 -3 710 -18z m1810 -2727 l0 -1741 -47 34 c-27 19
-203 147 -393 283 -190 137 -383 276 -430 310 -113 83 -665 480 -812 585
l-118 84 0 447 0 447 118 85 c64 46 200 144 302 217 102 73 226 163 275 198
50 36 185 133 300 216 116 83 343 246 505 363 162 117 296 213 298 213 1 0 2
-783 2 -1741z"/>
</g>
</svg>
