<?xml version="1.0" encoding="UTF-8"?><!DOCTYPE svg PUBLIC "-//W3C//DTD SVG 1.1//EN" "http://www.w3.org/Graphics/SVG/1.1/DTD/svg11.dtd"><svg xmlns="http://www.w3.org/2000/svg"><symbol id="icon-apple-pay" viewBox="0 0 99 38">
    <path fill="#fff" d="M18.131 5.434c1.084-1.372 1.82-3.214 1.625-5.096-1.586.08-3.522 1.06-4.643 2.432-1.006 1.176-1.897 3.095-1.665 4.898 1.781.156 3.56-.9 4.683-2.234zm1.605 2.586c-2.586-.156-4.785 1.485-6.02 1.485-1.236 0-3.127-1.407-5.173-1.369-2.662.04-5.133 1.563-6.484 3.986-2.78 4.847-.733 12.037 1.969 15.984 1.312 1.953 2.894 4.103 4.978 4.026 1.97-.078 2.74-1.29 5.134-1.29 2.392 0 3.087 1.29 5.172 1.25 2.161-.038 3.513-1.953 4.825-3.908 1.506-2.226 2.122-4.376 2.16-4.494-.038-.039-4.168-1.642-4.206-6.448-.039-4.025 3.242-5.94 3.397-6.058-1.853-2.773-4.748-3.086-5.752-3.164z"/>
    <path fill="#fff" fill-rule="evenodd" d="M59.88 11.935c0-5.312-3.666-8.96-8.93-8.96H40.78v27.277h4.21v-9.32h5.829c5.32 0 9.06-3.667 9.06-8.997zm-10.058 5.444h-4.831V6.548h4.85c3.647 0 5.734 1.966 5.734 5.406 0 3.44-2.087 5.425-5.753 5.425zm18.508 1.342c-4.7.265-7.35 2.4-7.35 5.879 0 3.572 2.707 5.992 6.58 5.992 2.594 0 5.094-1.399 6.241-3.61h.094v3.27h3.891V16.547c0-3.988-3.064-6.54-7.858-6.54-4.888 0-7.933 2.646-8.158 6.238h3.835c.356-1.777 1.823-2.911 4.173-2.911 2.481 0 3.966 1.323 3.966 3.535v1.53l-5.413.322zm5.415 2.514v1.57c0 2.589-2.219 4.555-5.058 4.555-2.18 0-3.609-1.135-3.609-2.873 0-1.702 1.372-2.78 3.797-2.95l4.87-.302z" clip-rule="evenodd"/>
    <path fill="#fff" d="M81.46 37.567V34.26c.3.076.977.076 1.316.076 1.88 0 2.895-.794 3.515-2.835 0-.038.357-1.21.357-1.23l-7.143-19.904h4.398l5.001 16.181h.075l5.001-16.181h4.286L90.86 31.29c-1.691 4.82-3.646 6.37-7.745 6.37-.338 0-1.354-.037-1.654-.094z"/>
</symbol><symbol id="icon-card" viewBox="-1.5 -1 20 15">
    <path d="M-1.5 12.333C-1.5 13.254-.754 14 .167 14h16.667c.92 0 1.667-.746 1.667-1.667V5.667h-20v6.666zM11 8.167h5v1.667h-5zM1 7.333h7.5V11.5H1z"/>
    <path d="M16.833-1H.167C-.754-1-1.5-.254-1.5.667v1.667h20V.667C18.5-.254 17.754-1 16.833-1z"/>
</symbol><symbol id="icon-check" viewBox="-.5 -.5 104 104">
    <path d="M74.044 35.317a3.985 3.985 0 0 1 0 5.635l-26.73 26.73a3.985 3.985 0 0 1-5.635 0L28.956 54.958a3.983 3.983 0 1 1 5.634-5.634l9.907 9.907 23.912-23.913a3.986 3.986 0 0 1 5.635-.001zM102.5 51.5c0 28.19-22.814 51-51 51-28.19 0-51-22.814-51-51 0-28.19 22.814-51 51-51 28.19 0 51 22.814 51 51zm-7.969 0c0-23.786-19.249-43.031-43.031-43.031-23.786 0-43.031 19.248-43.031 43.031 0 23.786 19.249 43.031 43.031 43.031 23.786 0 43.031-19.248 43.031-43.031z" fill="#27ba5e"/>
</symbol><symbol id="icon-edit" viewBox="0 0 469.331 469.331">
    <path d="M438.931 30.403c-40.4-40.5-106.1-40.5-146.5 0l-268.6 268.5c-2.1 2.1-3.4 4.8-3.8 7.7l-19.9 147.4c-.6 4.2.9 8.4 3.8 11.3 2.5 2.5 6 4 9.5 4 .6 0 1.2 0 1.8-.1l88.8-12c7.4-1 12.6-7.8 11.6-15.2s-7.8-12.6-15.2-11.6l-71.2 9.6 13.9-102.8 108.2 108.2c2.5 2.5 6 4 9.5 4s7-1.4 9.5-4l268.6-268.5c19.6-19.6 30.4-45.6 30.4-73.3s-10.8-53.7-30.4-73.2zm-141.3 33l45.1 45.1-245.1 245.1-45.1-45.1zm-136.7 353.4l-44.1-44.1 245.1-245.1 44.1 44.1zm263.9-264.4l-107.9-107.9c13.7-11.3 30.8-17.5 48.8-17.5 20.5 0 39.7 8 54.2 22.4s22.4 33.7 22.4 54.2c0 18.1-6.2 35.1-17.5 48.8z"/>
</symbol><symbol id="icon-stripe" viewBox="43.5 163.5 424 180">
    <g fill="#6772e5">
        <path d="M460.444 256.719c0-29.069-14.056-51.989-40.97-51.989-26.992 0-43.365 22.92-43.365 51.829 0 34.18 19.328 51.51 46.959 51.51 13.575 0 23.72-3.114 31.467-7.346v-22.841c-7.747 3.914-16.611 6.311-27.873 6.311-11.021 0-20.762-3.914-22.041-17.171h55.503c.08-1.599.32-7.507.32-10.303zM404.3 246.018c0-12.779 7.828-18.129 14.936-18.129 6.948 0 14.374 5.351 14.374 18.129z"/>
        <path d="M332.187 204.809c-11.101 0-18.288 5.271-22.201 8.864l-1.437-7.027h-24.998v132.409l28.353-5.989.079-32.104c4.072 2.955 10.141 7.188 20.045 7.188 20.284-.081 38.813-16.372 38.813-52.389-.001-32.983-18.768-50.952-38.654-50.952zm-6.708 78.262c-6.63 0-10.622-2.396-13.417-5.348l-.159-42.167c2.954-3.274 7.027-5.59 13.576-5.59 10.301-.081 17.488 11.579 17.488 26.433.001 15.253-7.028 26.672-17.488 26.672z"/>
        <path d="M123.591 276.045c0 20.444-16.212 32.023-39.85 32.184-9.744 0-20.445-1.916-30.987-6.469v-27.071c9.584 5.108 21.643 9.022 31.066 9.022 6.309 0 10.861-1.677 10.861-6.946 0-13.576-43.125-8.465-43.125-39.852 0-20.124 15.333-32.104 38.333-32.104 9.424 0 18.768 1.437 28.189 5.192v26.673c-8.624-4.633-19.564-7.269-28.189-7.269-5.989 0-9.662 1.758-9.662 6.15.001 12.778 43.364 6.709 43.364 40.49z"/>
        <path d="M178.534 230.844h-21.563v40.33c0 16.692 17.97 11.5 21.563 10.063v23.078c-3.753 2.076-10.621 3.754-19.884 3.754-16.852 0-29.469-12.377-29.469-29.147l.159-90.962 27.712-5.909v24.597h21.481z"/>
        <path d="M237.633 232.76c-3.594-1.197-14.936-2.874-21.643 5.91v67.404h-28.35v-99.428h24.518l1.756 8.386c6.63-12.219 19.886-9.742 23.639-8.386h.081z"/>
        <path d="M244.341 206.646h28.51v99.428h-28.51z"/>
        <path d="M272.851 191.952l-28.51 6.069v-23.079l28.51-6.07z"/>
    </g>
</symbol></svg>