<?xml version="1.0" encoding="UTF-8"?><!DOCTYPE svg PUBLIC "-//W3C//DTD SVG 1.1//EN" "http://www.w3.org/Graphics/SVG/1.1/DTD/svg11.dtd"><svg xmlns="http://www.w3.org/2000/svg"><symbol id="icon-apple-pay" viewBox="0 9.5 48 29">
    <path d="M2.5 14.5h43v19h-43z" fill="#fff"/>
    <path d="M22.457 18.198h-2.522v4.926h2.578c.237-.004 1.198-.074 1.801-.897.692-.946.474-2.186.28-2.791-.196-.607-1.022-1.238-2.137-1.238z"/>
    <path d="M29.299 26.823c.559.886 1.385.936 2.402.741 1.018-.195 1.554-1.48 1.554-1.48v-1.116s-2.571.099-3.252.341c-.68.241-.995 1.043-.704 1.514z"/>
    <path d="M33.659 21.335l.046.061-.014-.043z"/>
    <path d="M0 9v30h48V9zm11.465 6.48c.098 1.796-1.023 3.032-2.695 3.154 0 .001-.459-2.546 2.695-3.154zm1.771 12.229c-.311.521-.556.803-.556.803h-.009a1.835 1.835 0 0 1-1.399.652c-.084 0-.164-.014-.245-.023l-.001.006s-.02-.006-.027-.01a1.733 1.733 0 0 1-.528-.162c-.489-.145-1.183-.328-1.58-.343-.391-.016-.846.144-1.152.272-.102.06-.209.109-.322.147a.175.175 0 0 1-.027.015l-.004-.004a1.82 1.82 0 0 1-.579.102c-.562 0-1.06-.257-1.397-.655-.002.002-.003.003-.006.003-.02-.023-.033-.048-.051-.07a2.215 2.215 0 0 1-.1-.139C1.98 23.946 3.645 20.68 3.645 20.68h.002a3.058 3.058 0 0 1 2.796-1.827c.25 0 .49.039.723.096l.002-.007.105.041c.164.046.323.102.475.174.405.143.906.304 1.123.304.388 0 1.866-.611 2.28-.607.021 0 .033.02.051.025.083-.007.165-.025.25-.025 1.007 0 1.882.515 2.413 1.285a3.172 3.172 0 0 0-1.355 2.599c0 1.263.743 2.345 1.811 2.856a7.492 7.492 0 0 1-1.085 2.115zm12.862-4.585c-.462.6-1.354 1.584-3.131 1.681v.019h-3.032v4.342h-1.99V16.5h4.149s2.694-.316 4.174 1.916c1.211 1.893.313 4.077-.17 4.708zm9.048 6.04h-1.893v-1.527c-.896 1.625-2.814 1.747-3.688 1.527-1.506-.441-1.911-1.309-2.01-1.598-.002-.002-.004-.002-.006-.002-.004-.014-.004-.024-.008-.039a.343.343 0 0 1-.018-.064h.002c-.369-1.493-.047-2.51 1.043-3.172 1.115-.68 4.684-.68 4.684-.68V23.1c-.066-.887-.268-1.273-.681-1.48-.485-.243-1.042-.267-1.916-.17s-1.093 1.189-1.093 1.189H27.77a2.957 2.957 0 0 1 1.336-2.243l-.002-.001s.057-.041.151-.097l.021-.012c.014-.008.024-.014.041-.021.117-.065.199-.102.199-.102l.008.001c.492-.211 1.436-.469 2.953-.316 1.358.194 2.306 1.456 2.306 1.456s.364.558.364 1.698zm6.286.042s-.279 1.457-1.152 2.294c-.874.838-1.748 1.02-3.35 1.02v-1.602s2.063.616 2.414-1.712l-3.349-9.362h2.088l2.329 7.494 2.329-7.494h2.038z"/>
</symbol><symbol id="icon-card" viewBox="-1.5 -1 20 15">
    <path d="M-1.5 12.333C-1.5 13.254-.754 14 .167 14h16.667c.92 0 1.667-.746 1.667-1.667V5.667h-20v6.666zM11 8.167h5v1.667h-5zM1 7.333h7.5V11.5H1z"/>
    <path d="M16.833-1H.167C-.754-1-1.5-.254-1.5.667v1.667h20V.667C18.5-.254 17.754-1 16.833-1z"/>
</symbol><symbol id="icon-check" viewBox="-.5 -.5 104 104">
    <path d="M74.044 35.317a3.985 3.985 0 0 1 0 5.635l-26.73 26.73a3.985 3.985 0 0 1-5.635 0L28.956 54.958a3.983 3.983 0 1 1 5.634-5.634l9.907 9.907 23.912-23.913a3.986 3.986 0 0 1 5.635-.001zM102.5 51.5c0 28.19-22.814 51-51 51-28.19 0-51-22.814-51-51 0-28.19 22.814-51 51-51 28.19 0 51 22.814 51 51zm-7.969 0c0-23.786-19.249-43.031-43.031-43.031-23.786 0-43.031 19.248-43.031 43.031 0 23.786 19.249 43.031 43.031 43.031 23.786 0 43.031-19.248 43.031-43.031z" fill="#27ba5e"/>
</symbol><symbol id="icon-edit" viewBox="0 0 469.331 469.331">
    <path d="M438.931 30.403c-40.4-40.5-106.1-40.5-146.5 0l-268.6 268.5c-2.1 2.1-3.4 4.8-3.8 7.7l-19.9 147.4c-.6 4.2.9 8.4 3.8 11.3 2.5 2.5 6 4 9.5 4 .6 0 1.2 0 1.8-.1l88.8-12c7.4-1 12.6-7.8 11.6-15.2s-7.8-12.6-15.2-11.6l-71.2 9.6 13.9-102.8 108.2 108.2c2.5 2.5 6 4 9.5 4s7-1.4 9.5-4l268.6-268.5c19.6-19.6 30.4-45.6 30.4-73.3s-10.8-53.7-30.4-73.2zm-141.3 33l45.1 45.1-245.1 245.1-45.1-45.1zm-136.7 353.4l-44.1-44.1 245.1-245.1 44.1 44.1zm263.9-264.4l-107.9-107.9c13.7-11.3 30.8-17.5 48.8-17.5 20.5 0 39.7 8 54.2 22.4s22.4 33.7 22.4 54.2c0 18.1-6.2 35.1-17.5 48.8z"/>
</symbol><symbol id="icon-stripe" viewBox="43.5 163.5 424 180">
    <g fill="#6772e5">
        <path d="M460.444 256.719c0-29.069-14.056-51.989-40.97-51.989-26.992 0-43.365 22.92-43.365 51.829 0 34.18 19.328 51.51 46.959 51.51 13.575 0 23.72-3.114 31.467-7.346v-22.841c-7.747 3.914-16.611 6.311-27.873 6.311-11.021 0-20.762-3.914-22.041-17.171h55.503c.08-1.599.32-7.507.32-10.303zM404.3 246.018c0-12.779 7.828-18.129 14.936-18.129 6.948 0 14.374 5.351 14.374 18.129z"/>
        <path d="M332.187 204.809c-11.101 0-18.288 5.271-22.201 8.864l-1.437-7.027h-24.998v132.409l28.353-5.989.079-32.104c4.072 2.955 10.141 7.188 20.045 7.188 20.284-.081 38.813-16.372 38.813-52.389-.001-32.983-18.768-50.952-38.654-50.952zm-6.708 78.262c-6.63 0-10.622-2.396-13.417-5.348l-.159-42.167c2.954-3.274 7.027-5.59 13.576-5.59 10.301-.081 17.488 11.579 17.488 26.433.001 15.253-7.028 26.672-17.488 26.672z"/>
        <path d="M123.591 276.045c0 20.444-16.212 32.023-39.85 32.184-9.744 0-20.445-1.916-30.987-6.469v-27.071c9.584 5.108 21.643 9.022 31.066 9.022 6.309 0 10.861-1.677 10.861-6.946 0-13.576-43.125-8.465-43.125-39.852 0-20.124 15.333-32.104 38.333-32.104 9.424 0 18.768 1.437 28.189 5.192v26.673c-8.624-4.633-19.564-7.269-28.189-7.269-5.989 0-9.662 1.758-9.662 6.15.001 12.778 43.364 6.709 43.364 40.49z"/>
        <path d="M178.534 230.844h-21.563v40.33c0 16.692 17.97 11.5 21.563 10.063v23.078c-3.753 2.076-10.621 3.754-19.884 3.754-16.852 0-29.469-12.377-29.469-29.147l.159-90.962 27.712-5.909v24.597h21.481z"/>
        <path d="M237.633 232.76c-3.594-1.197-14.936-2.874-21.643 5.91v67.404h-28.35v-99.428h24.518l1.756 8.386c6.63-12.219 19.886-9.742 23.639-8.386h.081z"/>
        <path d="M244.341 206.646h28.51v99.428h-28.51z"/>
        <path d="M272.851 191.952l-28.51 6.069v-23.079l28.51-6.07z"/>
    </g>
</symbol></svg>